<svg width="115" height="114" viewBox="0 0 115 114" fill="none" xmlns="http://www.w3.org/2000/svg">
<g filter="url(#filter0_d_390_4193)">
<rect x="14" y="12" width="87" height="87" rx="3.40448" fill="white"/>
</g>
<path d="M41.5399 32.173C53.012 32.173 60.8901 26.1309 66.4181 26.1309C71.946 26.1309 83.5559 29.3619 83.5559 55.2184C83.5559 81.075 67.9373 84.8692 61.8571 84.8692C33.3848 84.8709 21.2226 32.173 41.5399 32.173Z" fill="url(#paint0_linear_390_4193)"/>
<path d="M79.599 37.8328C78.01 37.8328 76.7168 36.5179 76.7168 34.9022C76.7168 33.2865 78.01 31.9717 79.599 31.9717C81.1881 31.9717 82.4813 33.2865 82.4813 34.9022C82.4813 36.5179 81.1881 37.8328 79.599 37.8328ZM79.599 33.9254C79.0706 33.9254 78.6383 34.363 78.6383 34.9022C78.6383 35.4414 79.0706 35.8791 79.599 35.8791C80.1275 35.8791 80.5598 35.4414 80.5598 34.9022C80.5598 34.363 80.1275 33.9254 79.599 33.9254Z" fill="#D4D8FF"/>
<path d="M31.7109 78.7119H28.3331V77.023H31.7109V78.7119Z" fill="#D4D8FF"/>
<path d="M41.4229 78.7119H38.045V77.023H41.4229V78.7119Z" fill="#D4D8FF"/>
<path d="M35.5127 84.6221H33.8238V81.2442H35.5127V84.6221Z" fill="#D4D8FF"/>
<path d="M35.5117 74.9111H33.8228V71.5333H35.5117V74.9111Z" fill="#D4D8FF"/>
<path d="M55.7358 66.377L38.2178 57.1279V74.3117C38.2178 76.1642 39.7363 77.6646 41.6111 77.6646H72.9993C74.8741 77.6646 76.3927 76.1642 76.3927 74.3117V57.1279L58.8746 66.377C57.8906 66.885 56.7199 66.885 55.7358 66.377Z" fill="#F3F3F1"/>
<path d="M39.9365 51.9594C38.8744 52.5546 38.2178 53.6694 38.2178 54.8748V57.1296L43.3078 59.817V59.7617V50.0684L39.9365 51.9594Z" fill="#F3F3F1"/>
<path d="M74.673 51.9594L71.3018 50.0684V59.7617V59.817L76.3917 57.1296V54.8765C76.3917 53.6694 75.7351 52.5562 74.673 51.9594Z" fill="#F3F3F1"/>
<path d="M72.9984 78.9227H41.6102C39.0363 78.9227 36.9443 76.8556 36.9443 74.3124V54.8738C36.9443 53.2191 37.8487 51.6835 39.3078 50.8637L42.6791 48.9727L43.9346 51.1604L40.5633 53.0515C39.8999 53.4237 39.4893 54.1211 39.4893 54.8738V74.3124C39.4893 75.4675 40.4412 76.408 41.6102 76.408H72.9984C74.1674 76.408 75.1192 75.4675 75.1192 74.3124V54.8738C75.1192 54.1211 74.7086 53.4237 74.0452 53.0515L70.674 51.1604L71.9295 48.9727L75.3008 50.8637C76.7599 51.6835 77.6642 53.2191 77.6642 54.8738V74.3124C77.6642 76.8556 75.5722 78.9227 72.9984 78.9227Z" fill="#433ED1"/>
<path d="M57.3009 68.0139C56.5594 68.0139 55.8214 67.8396 55.1461 67.4925L37.6162 58.2368L38.8158 56.0205L56.3338 65.2712C56.9344 65.578 57.6691 65.5814 58.2832 65.2645L75.7894 56.0205L76.9889 58.2368L59.4709 67.4875C58.7906 67.8396 58.0457 68.0139 57.3009 68.0139Z" fill="#433ED1"/>
<path d="M72.5741 59.76H70.0291V37.3858C70.0291 35.816 69.0773 34.5378 67.9083 34.5378H46.7C45.531 34.5378 44.5792 35.816 44.5792 37.3858V59.76H42.0342V37.3858C42.0342 33.9294 44.1262 31.1201 46.7 31.1201H67.9083C70.4821 31.1201 72.5741 33.9294 72.5741 37.3858V59.76Z" fill="#433ED1"/>
<path d="M48.4805 37.835H66.1305V40.0059H48.4805V37.835Z" fill="#433ED1"/>
<path d="M48.4805 43.4053H66.1305V45.5762H48.4805V43.4053Z" fill="#433ED1"/>
<path d="M48.4805 48.9727H66.1305V51.1436H48.4805V48.9727Z" fill="#433ED1"/>
<path d="M48.4805 54.541H66.1305V56.712H48.4805V54.541Z" fill="#433ED1"/>
<defs>
<filter id="filter0_d_390_4193" x="0.722534" y="0.0843256" width="113.555" height="113.555" filterUnits="userSpaceOnUse" color-interpolation-filters="sRGB">
<feFlood flood-opacity="0" result="BackgroundImageFix"/>
<feColorMatrix in="SourceAlpha" type="matrix" values="0 0 0 0 0 0 0 0 0 0 0 0 0 0 0 0 0 0 127 0" result="hardAlpha"/>
<feOffset dy="1.36179"/>
<feGaussianBlur stdDeviation="6.63873"/>
<feComposite in2="hardAlpha" operator="out"/>
<feColorMatrix type="matrix" values="0 0 0 0 0 0 0 0 0 0 0 0 0 0 0 0 0 0 0.05 0"/>
<feBlend mode="normal" in2="BackgroundImageFix" result="effect1_dropShadow_390_4193"/>
<feBlend mode="normal" in="SourceGraphic" in2="effect1_dropShadow_390_4193" result="shape"/>
</filter>
<linearGradient id="paint0_linear_390_4193" x1="57.5001" y1="26.1309" x2="57.5001" y2="84.8692" gradientUnits="userSpaceOnUse">
<stop stop-color="#F0F1FE"/>
<stop offset="1" stop-color="#F0F1FE" stop-opacity="0"/>
</linearGradient>
</defs>
</svg>
