<svg width="115" height="114" viewBox="0 0 115 114" fill="none" xmlns="http://www.w3.org/2000/svg">
<g filter="url(#filter0_d_390_4158)">
<rect x="14" y="12" width="87" height="87" rx="3.40448" fill="white"/>
</g>
<path d="M39.2387 79.2899C50.9176 79.072 59.0531 84.9731 64.6806 84.8667C70.3081 84.7603 82.0698 81.3031 81.5851 55.4119C81.1004 29.5207 65.1282 26.0179 58.9366 26.1327C29.9496 26.6749 18.5527 79.6767 39.2387 79.2899Z" fill="url(#paint0_linear_390_4158)"/>
<path d="M28.8408 78.7129H25.463V77.024H28.8408V78.7129Z" fill="#D4D8FF"/>
<path d="M38.5527 78.7129H35.1749V77.024H38.5527V78.7129Z" fill="#D4D8FF"/>
<path d="M32.6426 84.623H30.9537V81.2452H32.6426V84.623Z" fill="#D4D8FF"/>
<path d="M32.6426 74.9121H30.9537V71.5343H32.6426V74.9121Z" fill="#D4D8FF"/>
<path d="M84.1326 33.6227C85.5294 33.6227 86.666 34.7593 86.666 36.1561C86.666 37.5528 85.5294 38.6895 84.1326 38.6895C82.7359 38.6895 81.5992 37.5528 81.5992 36.1561C81.5992 34.7593 82.7359 33.6227 84.1326 33.6227ZM84.1326 37.0005C84.5988 37.0005 84.9771 36.6205 84.9771 36.1561C84.9771 35.6916 84.5988 35.3116 84.1326 35.3116C83.6665 35.3116 83.2882 35.6916 83.2882 36.1561C83.2882 36.6205 83.6665 37.0005 84.1326 37.0005Z" fill="#D4D8FF"/>
<path d="M70.3445 38.6899V56.4236C70.3445 57.8221 69.2095 58.957 67.8111 58.957H71.6111C73.0096 58.957 74.1445 57.8221 74.1445 56.4236V38.6899C74.1445 37.2915 73.0096 36.1566 71.6111 36.1566H67.8111C69.2095 36.1566 70.3445 37.2915 70.3445 38.6899Z" fill="#F7F7F8"/>
<path d="M39.2138 74.9389C35.8547 74.9389 33.1211 72.258 33.1211 68.9636C33.1211 65.6692 35.8547 62.9883 39.2138 62.9883C42.573 62.9883 45.3066 65.6692 45.3066 68.9636C45.3066 72.258 42.573 74.9389 39.2138 74.9389ZM39.2138 65.9759C37.5343 65.9759 36.1675 67.3164 36.1675 68.9636C36.1675 70.6108 37.5343 71.9513 39.2138 71.9513C40.8934 71.9513 42.2602 70.6108 42.2602 68.9636C42.2602 67.3164 40.8934 65.9759 39.2138 65.9759Z" fill="#433ED1"/>
<path d="M59.5224 59.0073C56.1633 59.0073 53.4297 56.3263 53.4297 53.032C53.4297 49.7376 56.1633 47.0566 59.5224 47.0566C62.8816 47.0566 65.6152 49.7376 65.6152 53.032C65.6152 56.3263 62.8816 59.0073 59.5224 59.0073ZM59.5224 50.0443C57.8429 50.0443 56.4761 51.3848 56.4761 53.032C56.4761 54.6792 57.8429 56.0196 59.5224 56.0196C61.202 56.0196 62.5688 54.6792 62.5688 53.032C62.5688 51.3848 61.202 50.0443 59.5224 50.0443Z" fill="#433ED1"/>
<path d="M75.7705 43.0717C72.4113 43.0717 69.6777 40.3908 69.6777 37.0964C69.6777 33.802 72.4113 31.1211 75.7705 31.1211C79.1296 31.1211 81.8632 33.802 81.8632 37.0964C81.8632 40.3908 79.1296 43.0717 75.7705 43.0717ZM75.7705 34.1088C74.0909 34.1088 72.7241 35.4492 72.7241 37.0964C72.7241 38.7436 74.0909 40.0841 75.7705 40.0841C77.45 40.0841 78.8168 38.7436 78.8168 37.0964C78.8168 35.4492 77.45 34.1088 75.7705 34.1088Z" fill="#433ED1"/>
<path d="M42.2295 64.7109L54.6188 54.9874L56.5228 57.3207L44.1335 67.0443L42.2295 64.7109Z" fill="#433ED1"/>
<path d="M62.0322 48.4502L71.091 39.566L73.2451 41.6786L64.1863 50.5628L62.0322 48.4502Z" fill="#433ED1"/>
<path d="M41.2441 53.0307C37.885 53.0307 35.1514 50.3498 35.1514 47.0554C35.1514 43.761 37.885 41.0801 41.2441 41.0801C44.6032 41.0801 47.3368 43.761 47.3368 47.0554C47.3368 50.3498 44.6032 53.0307 41.2441 53.0307ZM41.2441 44.0677C39.5645 44.0677 38.1977 45.4082 38.1977 47.0554C38.1977 48.7026 39.5645 50.0431 41.2441 50.0431C42.9237 50.0431 44.2905 48.7026 44.2905 47.0554C44.2905 45.4082 42.9237 44.0677 41.2441 44.0677Z" fill="#433ED1"/>
<path d="M75.7705 62.9897C72.4113 62.9897 69.6777 60.3088 69.6777 57.0144C69.6777 53.72 72.4113 51.0391 75.7705 51.0391C79.1296 51.0391 81.8632 53.72 81.8632 57.0144C81.8632 60.3088 79.1296 62.9897 75.7705 62.9897ZM75.7705 54.0267C74.0909 54.0267 72.7241 55.3672 72.7241 57.0144C72.7241 58.6616 74.0909 60.002 75.7705 60.002C77.45 60.002 78.8168 58.6616 78.8168 57.0144C78.8168 55.3672 77.45 54.0267 75.7705 54.0267Z" fill="#433ED1"/>
<path d="M57.4912 78.9233C54.132 78.9233 51.3984 76.2424 51.3984 72.948C51.3984 69.6536 54.132 66.9727 57.4912 66.9727C60.8503 66.9727 63.5839 69.6536 63.5839 72.948C63.5839 76.2424 60.8503 78.9233 57.4912 78.9233ZM57.4912 69.9603C55.8116 69.9603 54.4448 71.3008 54.4448 72.948C54.4448 74.5952 55.8116 75.9356 57.4912 75.9356C59.1707 75.9356 60.5375 74.5952 60.5375 72.948C60.5375 71.3008 59.1707 69.9603 57.4912 69.9603Z" fill="#433ED1"/>
<path d="M42.6104 52.1025L45.2059 50.537L56.1288 67.9549L53.5333 69.5204L42.6104 52.1025Z" fill="#433ED1"/>
<path d="M60.2822 68.5498L70.9768 59.2391L72.9996 61.4739L62.305 70.7846L60.2822 68.5498Z" fill="#433ED1"/>
<defs>
<filter id="filter0_d_390_4158" x="0.722534" y="0.0843256" width="113.555" height="113.555" filterUnits="userSpaceOnUse" color-interpolation-filters="sRGB">
<feFlood flood-opacity="0" result="BackgroundImageFix"/>
<feColorMatrix in="SourceAlpha" type="matrix" values="0 0 0 0 0 0 0 0 0 0 0 0 0 0 0 0 0 0 127 0" result="hardAlpha"/>
<feOffset dy="1.36179"/>
<feGaussianBlur stdDeviation="6.63873"/>
<feComposite in2="hardAlpha" operator="out"/>
<feColorMatrix type="matrix" values="0 0 0 0 0 0 0 0 0 0 0 0 0 0 0 0 0 0 0.05 0"/>
<feBlend mode="normal" in2="BackgroundImageFix" result="effect1_dropShadow_390_4158"/>
<feBlend mode="normal" in="SourceGraphic" in2="effect1_dropShadow_390_4158" result="shape"/>
</filter>
<linearGradient id="paint0_linear_390_4158" x1="55.1436" y1="84.8682" x2="55.1436" y2="26.1301" gradientUnits="userSpaceOnUse">
<stop stop-color="#F1F2FF"/>
<stop offset="1" stop-color="#F1F2FF" stop-opacity="0"/>
</linearGradient>
</defs>
</svg>
