<svg width="63" height="70" viewBox="0 0 63 70" fill="none" xmlns="http://www.w3.org/2000/svg">
<path d="M50.6006 7.1074C38.3847 7.36283 29.8751 0.444303 23.9889 0.56905C18.1026 0.693797 5.80019 4.7471 6.3072 35.1023C6.8142 65.4575 23.5207 69.5643 29.997 69.4296C60.3167 68.794 72.2376 6.65395 50.6006 7.1074Z" fill="url(#paint0_linear_388_3809)"/>
<path d="M58.4751 11.1465H62.0082V13.1266H58.4751V11.1465Z" fill="#D4D8FF"/>
<path d="M48.3169 11.1465H51.85V13.1266H48.3169V11.1465Z" fill="#D4D8FF"/>
<path d="M54.4999 4.2168H56.2665V8.17703H54.4999V4.2168Z" fill="#D4D8FF"/>
<path d="M54.5 15.6016H56.2666V19.5618H54.5V15.6016Z" fill="#D4D8FF"/>
<path d="M3.64156 60.6474C2.1806 60.6474 0.991699 59.3148 0.991699 57.6772C0.991699 56.0397 2.1806 54.707 3.64156 54.707C5.10252 54.707 6.29143 56.0397 6.29143 57.6772C6.29143 59.3148 5.10252 60.6474 3.64156 60.6474ZM3.64156 56.6871C3.15399 56.6871 2.75827 57.1327 2.75827 57.6772C2.75827 58.2217 3.15399 58.6673 3.64156 58.6673C4.12914 58.6673 4.52485 58.2217 4.52485 57.6772C4.52485 57.1327 4.12914 56.6871 3.64156 56.6871Z" fill="#D4D8FF"/>
<path d="M40.589 30.9453H16.7402C15.2775 30.9453 14.0903 32.276 14.0903 33.9155V54.7067C14.0903 56.3463 15.2775 57.6769 16.7402 57.6769H40.589C42.0517 57.6769 43.2388 56.3463 43.2388 54.7067V33.9155C43.2388 32.276 42.0517 30.9453 40.589 30.9453Z" fill="white"/>
<path d="M18.0651 54.7067V33.9155C18.0651 32.276 19.2523 30.9453 20.715 30.9453H16.7402C15.2775 30.9453 14.0903 32.276 14.0903 33.9155V54.7067C14.0903 56.3463 15.2775 57.6769 16.7402 57.6769H20.715C19.2523 57.6769 18.0651 56.3463 18.0651 54.7067Z" fill="#F7F7F8"/>
<path d="M40.5887 59.1617H16.7399C14.5476 59.1617 12.7651 57.1618 12.7651 54.7065V33.9152C12.7651 31.4599 14.5476 29.46 16.7399 29.46H40.5887V32.4301H16.7399C16.0086 32.4301 15.415 33.0974 15.415 33.9152V54.7065C15.415 55.5242 16.0086 56.1915 16.7399 56.1915H40.5887C41.3201 56.1915 41.9136 55.5242 41.9136 54.7065H44.5635C44.5635 57.1618 42.781 59.1617 40.5887 59.1617Z" fill="#433ED1"/>
<path d="M39.2638 30.9448H36.614V23.5194C36.614 18.6067 33.0473 14.6088 28.6644 14.6088C24.2815 14.6088 20.7148 18.6067 20.7148 23.5194V30.9448H18.0649V23.5194C18.0649 16.9672 22.8188 11.6387 28.6644 11.6387C34.51 11.6387 39.2638 16.9672 39.2638 23.5194V30.9448Z" fill="#433ED1"/>
<path d="M54.9414 34.0425C52.9928 34.0425 51.4082 32.2664 51.4082 30.0823C51.4082 27.8982 52.9928 26.1221 54.9414 26.1221C56.8899 26.1221 58.4745 27.8982 58.4745 30.0823C58.4745 32.2664 56.8899 34.0425 54.9414 34.0425ZM54.9414 29.0922C54.4538 29.0922 54.0581 29.5378 54.0581 30.0823C54.0581 30.6268 54.4538 31.0724 54.9414 31.0724C55.4289 31.0724 55.8246 30.6268 55.8246 30.0823C55.8246 29.5378 55.4289 29.0922 54.9414 29.0922Z" fill="#433ED1"/>
<path d="M54.9414 59.7828C52.9928 59.7828 51.4082 58.0066 51.4082 55.8225C51.4082 53.6385 52.9928 51.8623 54.9414 51.8623C56.8899 51.8623 58.4745 53.6385 58.4745 55.8225C58.4745 58.0066 56.8899 59.7828 54.9414 59.7828ZM54.9414 54.8325C54.4538 54.8325 54.0581 55.278 54.0581 55.8225C54.0581 56.3671 54.4538 56.8126 54.9414 56.8126C55.4289 56.8126 55.8246 56.3671 55.8246 55.8225C55.8246 55.278 55.4289 54.8325 54.9414 54.8325Z" fill="#433ED1"/>
<path d="M54.9414 46.9136C52.9928 46.9136 51.4082 45.1375 51.4082 42.9534C51.4082 40.7693 52.9928 38.9932 54.9414 38.9932C56.8899 38.9932 58.4745 40.7693 58.4745 42.9534C58.4745 45.1375 56.8899 46.9136 54.9414 46.9136ZM54.9414 41.9633C54.4538 41.9633 54.0581 42.4089 54.0581 42.9534C54.0581 43.4979 54.4538 43.9435 54.9414 43.9435C55.4289 43.9435 55.8246 43.4979 55.8246 42.9534C55.8246 42.4089 55.4289 41.9633 54.9414 41.9633Z" fill="#433ED1"/>
<path d="M36.834 41.4678H51.5937V44.4379H36.834V41.4678Z" fill="#433ED1"/>
<path d="M46.5501 38.002H36.834V35.0318H46.1721L52.2986 30.7627L53.6977 33.2834L47.2497 37.7783C47.0395 37.9248 46.7975 38.002 46.5501 38.002Z" fill="#433ED1"/>
<path d="M52.2986 55.1426L46.1721 50.8735H36.834V47.9033H46.5501C46.7975 47.9033 47.0395 47.9805 47.2497 48.1271L53.6977 52.6219L52.2986 55.1426Z" fill="#433ED1"/>
<path d="M54.9415 32.1082C55.9399 32.1082 56.7493 31.201 56.7493 30.0819C56.7493 28.9628 55.9399 28.0557 54.9415 28.0557C53.9431 28.0557 53.1338 28.9628 53.1338 30.0819C53.1338 31.201 53.9431 32.1082 54.9415 32.1082Z" fill="#A7ABF0"/>
<path d="M54.9415 57.8484C55.9399 57.8484 56.7493 56.9412 56.7493 55.8222C56.7493 54.7031 55.9399 53.7959 54.9415 53.7959C53.9431 53.7959 53.1338 54.7031 53.1338 55.8222C53.1338 56.9412 53.9431 57.8484 54.9415 57.8484Z" fill="#A7ABF0"/>
<path d="M54.9415 44.9802C55.9399 44.9802 56.7493 44.0731 56.7493 42.954C56.7493 41.8349 55.9399 40.9277 54.9415 40.9277C53.9431 40.9277 53.1338 41.8349 53.1338 42.954C53.1338 44.0731 53.9431 44.9802 54.9415 44.9802Z" fill="#A7ABF0"/>
<path fill-rule="evenodd" clip-rule="evenodd" d="M25.4922 47.3576C27.1661 47.3576 28.523 45.8366 28.523 43.9604C28.523 42.0842 27.1661 40.5633 25.4922 40.5633C23.8184 40.5633 22.4615 42.0842 22.4615 43.9604C22.4615 45.8366 23.8184 47.3576 25.4922 47.3576ZM25.4922 49.9179C28.4276 49.9179 30.8073 47.2506 30.8073 43.9604C30.8073 40.6702 28.4276 38.0029 25.4922 38.0029C22.5569 38.0029 20.1772 40.6702 20.1772 43.9604C20.1772 47.2506 22.5569 49.9179 25.4922 49.9179Z" fill="#433ED1"/>
<path fill-rule="evenodd" clip-rule="evenodd" d="M29.4693 50.3375L25.6508 46.472L27.1818 44.5719L31.0003 48.4374L29.4693 50.3375Z" fill="#433ED1"/>
<defs>
<linearGradient id="paint0_linear_388_3809" x1="33.9644" y1="0.567383" x2="33.9644" y2="69.4327" gradientUnits="userSpaceOnUse">
<stop stop-color="#F1F2FF"/>
<stop offset="1" stop-color="#F1F2FF" stop-opacity="0"/>
</linearGradient>
</defs>
</svg>
